<svg version="1.1" id="Layer_1" xmlns="http://www.w3.org/2000/svg" xmlns:xlink="http://www.w3.org/1999/xlink" x="0px" y="0px"
	 width="100%" viewBox="0 0 1503 1504" enable-background="new 0 0 1503 1504" xml:space="preserve">
<path fill="#E84142" opacity="1.000000" stroke="none" 
	d="
M713.000000,1.000012 
	C738.687561,1.000000 764.375122,1.000000 790.352295,1.412662 
	C791.323181,2.206912 791.980652,2.868701 792.689270,2.929007 
	C809.089783,4.324832 825.529724,5.338698 841.890747,7.091671 
	C856.695679,8.677914 871.548096,10.383489 886.140991,13.250609 
	C906.427734,17.236416 926.725830,21.534224 946.593018,27.193827 
	C972.249756,34.502743 997.795471,42.446468 1022.824036,51.652752 
	C1053.345581,62.879475 1082.861816,76.633942 1111.187378,92.710320 
	C1128.501221,102.536995 1145.981201,112.208206 1162.481445,123.296242 
	C1182.817261,136.961761 1202.688965,151.426865 1221.875244,166.662140 
	C1240.171753,181.190887 1258.057739,196.405716 1274.788818,212.690781 
	C1292.436523,229.867996 1308.905762,248.317215 1325.131592,266.873779 
	C1337.419800,280.927032 1349.069458,295.621124 1360.026123,310.738281 
	C1381.084595,339.792999 1400.958008,369.660431 1416.966675,401.896515 
	C1424.307861,416.679108 1431.802856,431.396576 1438.692017,446.389862 
	C1451.704224,474.709015 1462.397217,503.913269 1471.412964,533.759583 
	C1482.468872,570.359924 1491.369873,607.421326 1495.965942,645.412476 
	C1498.292114,664.640991 1499.984741,683.945862 1502.074585,703.204102 
	C1502.182007,704.194092 1503.334229,705.070679 1504.000000,706.000000 
	C1504.000000,737.020874 1504.000000,768.041809 1503.588013,799.352783 
	C1502.793945,800.323547 1502.134644,800.979553 1502.071289,801.688660 
	C1501.004761,813.651367 1500.163940,825.636108 1498.959595,837.584290 
	C1497.809082,848.999390 1496.857544,860.479492 1494.819824,871.750427 
	C1491.283081,891.312622 1487.384399,910.830139 1482.900024,930.195557 
	C1475.655029,961.482239 1466.051880,992.098755 1454.415527,1022.029480 
	C1443.469482,1050.184692 1431.495483,1077.917358 1416.848511,1104.381348 
	C1407.519775,1121.236206 1398.206787,1138.145508 1387.886719,1154.395386 
	C1371.665771,1179.936523 1354.610596,1204.956787 1334.662476,1227.821777 
	C1319.815918,1244.839233 1305.060303,1261.948730 1289.755371,1278.548218 
	C1280.990479,1288.054321 1271.287964,1296.706909 1261.859375,1305.586304 
	C1255.128540,1311.924927 1248.451782,1318.380615 1241.223267,1324.119263 
	C1223.918579,1337.857056 1206.436646,1351.380615 1188.780518,1364.664062 
	C1162.358154,1384.542847 1134.237549,1401.870972 1104.816284,1416.822266 
	C1080.227051,1429.318115 1055.015381,1440.673828 1029.655518,1451.546143 
	C1000.580200,1464.011475 970.346191,1473.346802 939.640076,1480.884644 
	C920.501526,1485.582886 901.142822,1489.501709 881.740417,1492.973267 
	C863.722229,1496.197144 845.554504,1498.695068 827.376038,1500.873291 
	C816.253784,1502.206055 804.983887,1502.288818 793.790833,1503.081909 
	C792.820129,1503.150757 791.928406,1504.334229 791.000000,1505.000000 
	C765.312439,1505.000000 739.624878,1505.000000 713.590332,1504.575928 
	C712.231689,1503.768921 711.241394,1503.127930 710.205078,1503.042358 
	C697.426270,1501.984741 684.603821,1501.340454 671.866821,1499.922607 
	C657.406433,1498.312866 642.902222,1496.646729 628.629211,1493.902100 
	C603.850586,1489.137451 579.057800,1484.226074 554.606689,1478.047607 
	C534.694702,1473.016113 514.981445,1466.833496 495.712524,1459.719116 
	C473.970673,1451.691650 452.644531,1442.452148 431.485779,1432.963257 
	C418.548798,1427.161377 406.078918,1420.229370 393.736267,1413.212036 
	C376.437469,1403.376831 358.952667,1393.733398 342.460693,1382.649048 
	C322.133881,1368.987427 302.268219,1354.530884 283.089081,1339.302124 
	C264.799377,1324.779907 247.428009,1309.067261 230.090530,1293.393921 
	C221.617477,1285.734253 213.972778,1277.126099 206.250443,1268.675659 
	C195.348923,1256.746338 184.297577,1244.912354 174.085831,1232.404419 
	C161.045517,1216.431519 148.095306,1200.303467 136.315216,1183.399780 
	C109.092979,1144.337524 85.361633,1103.219116 66.141747,1059.563965 
	C53.589581,1031.053589 42.564640,1002.008484 33.555721,972.173706 
	C22.508289,935.587891 13.627297,898.537170 9.031830,860.562500 
	C6.705822,841.341553 5.014319,822.044189 2.925318,802.793335 
	C2.817976,801.804199 1.665743,800.928528 0.999997,800.000000 
	C1.000000,768.979126 1.000000,737.958191 1.412012,706.647217 
	C2.214692,705.343689 2.860626,704.353821 2.956877,703.313171 
	C4.016892,691.853516 4.610632,680.336975 6.076241,668.931763 
	C8.409090,650.777710 11.032454,632.650757 14.028677,614.594604 
	C19.021709,584.505066 26.711042,555.049805 35.954552,525.999329 
	C49.483803,483.479584 66.217323,442.281677 87.548340,403.051117 
	C96.903557,385.845673 106.186058,368.534119 116.730782,352.057434 
	C133.118774,326.450256 150.193802,301.246277 170.243347,278.257690 
	C184.537369,261.868286 198.702560,245.357010 213.373032,229.309464 
	C220.857986,221.121948 229.175934,213.668015 237.390335,206.182022 
	C248.965744,195.633041 260.436584,184.919662 272.600586,175.078064 
	C289.900726,161.080933 307.165802,146.886581 325.584229,134.464264 
	C348.944733,118.708687 373.197510,104.218117 397.554474,90.020897 
	C410.877869,82.254921 425.117950,76.024155 439.106384,69.445007 
	C462.975403,58.218765 487.304626,48.102219 512.674500,40.709023 
	C534.555054,34.332691 556.259338,27.148138 578.440063,22.057888 
	C604.554443,16.064922 630.998108,11.286743 657.491882,7.246675 
	C674.511841,4.651278 691.882812,4.374340 709.085388,2.926930 
	C710.434753,2.813396 711.697205,1.666601 713.000000,1.000012 
M530.556885,638.030884 
	C530.297363,638.457092 530.026245,638.876587 529.780029,639.310425 
	C480.599243,725.975769 431.366364,812.611633 382.269379,899.324463 
	C363.993469,931.602417 345.920013,963.996887 328.052124,996.502014 
	C325.228149,1001.639343 322.842102,1007.526489 322.236755,1013.275696 
	C320.627106,1028.563599 330.833954,1044.180908 345.562439,1048.709961 
	C352.613373,1050.878296 360.357971,1051.552490 367.794342,1051.585815 
	C431.290955,1051.871216 494.788879,1051.892700 558.286438,1051.884521 
	C567.392151,1051.883423 576.505432,1051.446289 585.601990,1050.962036 
	C609.028809,1049.714966 629.163513,1040.443848 646.970703,1025.539062 
	C660.815186,1013.951172 669.711792,998.649536 678.411011,983.303040 
	C749.949829,857.099792 821.385010,730.837769 892.797974,604.563293 
	C901.704468,588.814575 908.052307,572.198975 909.079468,553.852112 
	C910.385437,530.523071 904.649963,509.021271 893.090698,488.846985 
	C860.077881,431.230164 827.243896,373.510651 794.118896,315.958496 
	C789.410278,307.777588 783.837891,300.020203 778.029236,292.562195 
	C767.677002,279.270752 739.582275,279.238373 728.937561,293.146149 
	C724.093628,299.474823 719.226868,305.893341 715.297363,312.798584 
	C653.752930,420.947083 592.360168,529.181824 530.556885,638.030884 
M1176.209473,1042.734009 
	C1177.043213,1041.918945 1177.939697,1041.158081 1178.700806,1040.280151 
	C1185.927368,1031.943970 1191.073730,1022.501099 1187.826904,1011.343811 
	C1185.134033,1002.090210 1181.476685,992.852173 1176.661987,984.523315 
	C1139.520508,920.274170 1102.088257,856.192261 1064.511230,792.196411 
	C1056.183350,778.013367 1047.304810,764.115112 1037.988525,750.560913 
	C1027.070801,734.677063 996.667297,734.453613 985.337952,751.026062 
	C981.209717,757.064758 976.762878,762.920837 973.073669,769.218811 
	C940.957275,824.046021 908.906189,878.911926 876.998657,933.860901 
	C864.722595,955.001892 852.654419,976.270935 840.936584,997.724670 
	C836.877563,1005.156128 833.340759,1013.020325 836.032959,1022.188538 
	C839.428101,1033.750000 845.302124,1043.190186 856.735718,1048.057983 
	C866.348938,1052.150879 876.619263,1051.874390 886.852478,1051.870239 
	C968.170654,1051.836548 1049.488892,1051.925659 1130.807007,1051.884033 
	C1139.087402,1051.879761 1147.401733,1051.617065 1155.637573,1050.823242 
	C1162.885376,1050.124634 1169.971069,1048.322876 1176.209473,1042.734009 
z"/>
<path fill="#000000" opacity="1.000000" stroke="none" 
	d="
M791.468628,1505.000000 
	C791.928406,1504.334229 792.820129,1503.150757 793.790833,1503.081909 
	C804.983887,1502.288818 816.253784,1502.206055 827.376038,1500.873291 
	C845.554504,1498.695068 863.722229,1496.197144 881.740417,1492.973267 
	C901.142822,1489.501709 920.501526,1485.582886 939.640076,1480.884644 
	C970.346191,1473.346802 1000.580200,1464.011475 1029.655518,1451.546143 
	C1055.015381,1440.673828 1080.227051,1429.318115 1104.816284,1416.822266 
	C1134.237549,1401.870972 1162.358154,1384.542847 1188.780518,1364.664062 
	C1206.436646,1351.380615 1223.918579,1337.857056 1241.223267,1324.119263 
	C1248.451782,1318.380615 1255.128540,1311.924927 1261.859375,1305.586304 
	C1271.287964,1296.706909 1280.990479,1288.054321 1289.755371,1278.548218 
	C1305.060303,1261.948730 1319.815918,1244.839233 1334.662476,1227.821777 
	C1354.610596,1204.956787 1371.665771,1179.936523 1387.886719,1154.395386 
	C1398.206787,1138.145508 1407.519775,1121.236206 1416.848511,1104.381348 
	C1431.495483,1077.917358 1443.469482,1050.184692 1454.415527,1022.029480 
	C1466.051880,992.098755 1475.655029,961.482239 1482.900024,930.195557 
	C1487.384399,910.830139 1491.283081,891.312622 1494.819824,871.750427 
	C1496.857544,860.479492 1497.809082,848.999390 1498.959595,837.584290 
	C1500.163940,825.636108 1501.004761,813.651367 1502.071289,801.688660 
	C1502.134644,800.979553 1502.793945,800.323547 1503.588013,799.821411 
	C1504.000000,1034.927490 1504.000000,1269.855103 1504.000000,1505.000000 
	C1266.645874,1505.000000 1029.291626,1505.000000 791.468628,1505.000000 
z"/>
<path fill="#000000" opacity="1.000000" stroke="none" 
	d="
M1504.000000,705.531372 
	C1503.334229,705.070679 1502.182007,704.194092 1502.074585,703.204102 
	C1499.984741,683.945862 1498.292114,664.640991 1495.965942,645.412476 
	C1491.369873,607.421326 1482.468872,570.359924 1471.412964,533.759583 
	C1462.397217,503.913269 1451.704224,474.709015 1438.692017,446.389862 
	C1431.802856,431.396576 1424.307861,416.679108 1416.966675,401.896515 
	C1400.958008,369.660431 1381.084595,339.792999 1360.026123,310.738281 
	C1349.069458,295.621124 1337.419800,280.927032 1325.131592,266.873779 
	C1308.905762,248.317215 1292.436523,229.867996 1274.788818,212.690781 
	C1258.057739,196.405716 1240.171753,181.190887 1221.875244,166.662140 
	C1202.688965,151.426865 1182.817261,136.961761 1162.481445,123.296242 
	C1145.981201,112.208206 1128.501221,102.536995 1111.187378,92.710320 
	C1082.861816,76.633942 1053.345581,62.879475 1022.824036,51.652752 
	C997.795471,42.446468 972.249756,34.502743 946.593018,27.193827 
	C926.725830,21.534224 906.427734,17.236416 886.140991,13.250609 
	C871.548096,10.383489 856.695679,8.677914 841.890747,7.091671 
	C825.529724,5.338698 809.089783,4.324832 792.689270,2.929007 
	C791.980652,2.868701 791.323181,2.206912 790.820923,1.412662 
	C1028.593384,1.000000 1266.186646,1.000000 1504.000000,1.000000 
	C1504.000000,235.687515 1504.000000,470.375092 1504.000000,705.531372 
z"/>
<path fill="#000000" opacity="1.000000" stroke="none" 
	d="
M0.999997,800.468628 
	C1.665743,800.928528 2.817976,801.804199 2.925318,802.793335 
	C5.014319,822.044189 6.705822,841.341553 9.031830,860.562500 
	C13.627297,898.537170 22.508289,935.587891 33.555721,972.173706 
	C42.564640,1002.008484 53.589581,1031.053589 66.141747,1059.563965 
	C85.361633,1103.219116 109.092979,1144.337524 136.315216,1183.399780 
	C148.095306,1200.303467 161.045517,1216.431519 174.085831,1232.404419 
	C184.297577,1244.912354 195.348923,1256.746338 206.250443,1268.675659 
	C213.972778,1277.126099 221.617477,1285.734253 230.090530,1293.393921 
	C247.428009,1309.067261 264.799377,1324.779907 283.089081,1339.302124 
	C302.268219,1354.530884 322.133881,1368.987427 342.460693,1382.649048 
	C358.952667,1393.733398 376.437469,1403.376831 393.736267,1413.212036 
	C406.078918,1420.229370 418.548798,1427.161377 431.485779,1432.963257 
	C452.644531,1442.452148 473.970673,1451.691650 495.712524,1459.719116 
	C514.981445,1466.833496 534.694702,1473.016113 554.606689,1478.047607 
	C579.057800,1484.226074 603.850586,1489.137451 628.629211,1493.902100 
	C642.902222,1496.646729 657.406433,1498.312866 671.866821,1499.922607 
	C684.603821,1501.340454 697.426270,1501.984741 710.205078,1503.042358 
	C711.241394,1503.127930 712.231689,1503.768921 713.121704,1504.575928 
	C475.739929,1505.000000 238.479858,1505.000000 1.000000,1505.000000 
	C1.000000,1270.312500 1.000000,1035.624878 0.999997,800.468628 
z"/>
<path fill="#000000" opacity="1.000000" stroke="none" 
	d="
M712.531372,1.000012 
	C711.697205,1.666601 710.434753,2.813396 709.085388,2.926930 
	C691.882812,4.374340 674.511841,4.651278 657.491882,7.246675 
	C630.998108,11.286743 604.554443,16.064922 578.440063,22.057888 
	C556.259338,27.148138 534.555054,34.332691 512.674500,40.709023 
	C487.304626,48.102219 462.975403,58.218765 439.106384,69.445007 
	C425.117950,76.024155 410.877869,82.254921 397.554474,90.020897 
	C373.197510,104.218117 348.944733,118.708687 325.584229,134.464264 
	C307.165802,146.886581 289.900726,161.080933 272.600586,175.078064 
	C260.436584,184.919662 248.965744,195.633041 237.390335,206.182022 
	C229.175934,213.668015 220.857986,221.121948 213.373032,229.309464 
	C198.702560,245.357010 184.537369,261.868286 170.243347,278.257690 
	C150.193802,301.246277 133.118774,326.450256 116.730782,352.057434 
	C106.186058,368.534119 96.903557,385.845673 87.548340,403.051117 
	C66.217323,442.281677 49.483803,483.479584 35.954552,525.999329 
	C26.711042,555.049805 19.021709,584.505066 14.028677,614.594604 
	C11.032454,632.650757 8.409090,650.777710 6.076241,668.931763 
	C4.610632,680.336975 4.016892,691.853516 2.956877,703.313171 
	C2.860626,704.353821 2.214692,705.343689 1.412012,706.178589 
	C1.000000,471.072540 1.000000,236.145081 1.000000,1.000000 
	C238.020844,1.000000 475.041779,1.000000 712.531372,1.000012 
z"/>
<path fill="#FFFFFF" opacity="1.000000" stroke="none" 
	d="
M530.744629,637.713806 
	C592.360168,529.181824 653.752930,420.947083 715.297363,312.798584 
	C719.226868,305.893341 724.093628,299.474823 728.937561,293.146149 
	C739.582275,279.238373 767.677002,279.270752 778.029236,292.562195 
	C783.837891,300.020203 789.410278,307.777588 794.118896,315.958496 
	C827.243896,373.510651 860.077881,431.230164 893.090698,488.846985 
	C904.649963,509.021271 910.385437,530.523071 909.079468,553.852112 
	C908.052307,572.198975 901.704468,588.814575 892.797974,604.563293 
	C821.385010,730.837769 749.949829,857.099792 678.411011,983.303040 
	C669.711792,998.649536 660.815186,1013.951172 646.970703,1025.539062 
	C629.163513,1040.443848 609.028809,1049.714966 585.601990,1050.962036 
	C576.505432,1051.446289 567.392151,1051.883423 558.286438,1051.884521 
	C494.788879,1051.892700 431.290955,1051.871216 367.794342,1051.585815 
	C360.357971,1051.552490 352.613373,1050.878296 345.562439,1048.709961 
	C330.833954,1044.180908 320.627106,1028.563599 322.236755,1013.275696 
	C322.842102,1007.526489 325.228149,1001.639343 328.052124,996.502014 
	C345.920013,963.996887 363.993469,931.602417 382.269379,899.324463 
	C431.366364,812.611633 480.599243,725.975769 529.780029,639.310425 
	C530.026245,638.876587 530.297363,638.457092 530.744629,637.713806 
z"/>
<path fill="#FFFFFF" opacity="1.000000" stroke="none" 
	d="
M1175.922363,1042.949463 
	C1169.971069,1048.322876 1162.885376,1050.124634 1155.637573,1050.823242 
	C1147.401733,1051.617065 1139.087402,1051.879761 1130.807007,1051.884033 
	C1049.488892,1051.925659 968.170654,1051.836548 886.852478,1051.870239 
	C876.619263,1051.874390 866.348938,1052.150879 856.735718,1048.057983 
	C845.302124,1043.190186 839.428101,1033.750000 836.032959,1022.188538 
	C833.340759,1013.020325 836.877563,1005.156128 840.936584,997.724670 
	C852.654419,976.270935 864.722595,955.001892 876.998657,933.860901 
	C908.906189,878.911926 940.957275,824.046021 973.073669,769.218811 
	C976.762878,762.920837 981.209717,757.064758 985.337952,751.026062 
	C996.667297,734.453613 1027.070801,734.677063 1037.988525,750.560913 
	C1047.304810,764.115112 1056.183350,778.013367 1064.511230,792.196411 
	C1102.088257,856.192261 1139.520508,920.274170 1176.661987,984.523315 
	C1181.476685,992.852173 1185.134033,1002.090210 1187.826904,1011.343811 
	C1191.073730,1022.501099 1185.927368,1031.943970 1178.700806,1040.280151 
	C1177.939697,1041.158081 1177.043213,1041.918945 1175.922363,1042.949463 
z"/>
</svg>